<mxfile host="app.diagrams.net" modified="2023-05-12T12:54:24.107Z" agent="Mozilla/5.0 (Windows NT 10.0; Win64; x64) AppleWebKit/537.36 (KHTML, like Gecko) Chrome/112.0.0.0 Safari/537.36" version="21.2.9" etag="VrXzwbE5OHUSvFUQ9lX0" type="github">
  <diagram name="Page-1" id="zYuu9pua7qCV4rpFZ7cc">
    <mxGraphModel>
      <root>
        <mxCell id="0" />
        <mxCell id="1" parent="0" />
      </root>
    </mxGraphModel>
  </diagram>
</mxfile>
